<?xml version="1.0" encoding="UTF-8"?>
<!-- Generated by Pixelmator Pro 3.6.13 -->
<svg width="437" height="83" viewBox="0 0 437 83" xmlns="http://www.w3.org/2000/svg">
    <g id="Group">
        <linearGradient id="linearGradient1" x1="10" y1="12" x2="80" y2="62" gradientUnits="userSpaceOnUse">
            <stop offset="1e-05" stop-color="#0a305a" stop-opacity="1"/>
            <stop offset="1" stop-color="#051c36" stop-opacity="1"/>
        </linearGradient>
        <path id="Path" fill="none" stroke="url(#linearGradient1)" stroke-width="7" stroke-linecap="round" stroke-linejoin="round" d="M 10 37 C 33.333332 3.666664 56.666668 3.666664 80 37 C 56.666668 70.333336 33.333332 70.333336 10 37 Z"/>
        <linearGradient id="linearGradient2" x1="35" y1="27" x2="35" y2="47" gradientUnits="userSpaceOnUse">
            <stop offset="1e-05" stop-color="#e5c579" stop-opacity="1"/>
            <stop offset="0.5" stop-color="#c5a059" stop-opacity="1"/>
            <stop offset="1" stop-color="#997630" stop-opacity="1"/>
        </linearGradient>
        <path id="path1" fill="url(#linearGradient2)" stroke="none" d="M 55 37 C 55 42.522846 50.522846 47 45 47 C 39.477154 47 35 42.522846 35 37 C 35 31.477154 39.477154 27 45 27 C 50.522846 27 55 31.477154 55 37 Z"/>
        <linearGradient id="linearGradient3" x1="25" y1="37" x2="25" y2="49.5" gradientUnits="userSpaceOnUse">
            <stop offset="1e-05" stop-color="#e5c579" stop-opacity="1"/>
            <stop offset="0.5" stop-color="#c5a059" stop-opacity="1"/>
            <stop offset="1" stop-color="#997630" stop-opacity="1"/>
        </linearGradient>
        <path id="path2" fill="none" stroke="url(#linearGradient3)" stroke-width="2.5" stroke-linecap="round" opacity="0.9" d="M 25 37 C 38.333332 53.666668 51.666668 53.666668 65 37"/>
    </g>
    <g id="g1">
        <text id="AETHERVISION" xml:space="preserve"><tspan x="97" y="49" font-family="Times New Roman" font-size="42" font-weight="700" fill="#0a305a" letter-spacing="1" xml:space="preserve">AETHER</tspan><tspan font-family="Times New Roman" font-size="42" font-weight="700" fill="#c5a059" letter-spacing="1" xml:space="preserve">VISION</tspan></text>
        <text id="The-Kukreja-Institute" xml:space="preserve" x="99" y="75" font-family="Helvetica" font-size="18" fill="#444444" letter-spacing="6.3">The Kukreja Institute</text>
    </g>
</svg>
