<svg width="400" height="400" viewBox="0 0 100 100" xmlns="http://www.w3.org/2000/svg">
    <!-- AetherVision Logo Concept -->
    <!-- This design combines 'A' and 'V' into a single, minimalist, geometric form. -->
    <!-- The overall shape evokes a crystal, a foundational structure, or a stylized eye. -->
    <!-- The color is AetherBlue, as defined in the project's source material. -->
    <defs>
        <linearGradient id="AetherBlueGradient" x1="0%" y1="0%" x2="100%" y2="100%">
            <stop offset="0%" style="stop-color:rgb(10, 48, 90); stop-opacity:1" />
            <stop offset="100%" style="stop-color:rgb(20, 68, 110); stop-opacity:1" />
        </linearGradient>
    </defs>
    <style>
        .aether-blue-stroke {
            stroke: url(#AetherBlueGradient);
            stroke-width: 2;
            fill: none;
        }
        .aether-blue-fill {
            fill: url(#AetherBlueGradient);
        }
        .aether-blue-fill-light {
            fill: rgb(20, 68, 110);
            opacity: 0.1;
        }
    </style>

    <!-- Background Grid - subtle representation of a blueprint or fabric of spacetime -->
    <path d="M0 50 L100 50 M50 0 L50 100 M25 0 L25 100 M75 0 L75 100 M0 25 L100 25 M0 75 L100 75" stroke="rgb(10, 48, 90)" stroke-width="0.1" />

    <!-- Main 'AV' form -->
    <path d="M 50,15 L 15,85 L 85,85 Z" class="aether-blue-fill-light" />
    <path d="M 50,15 L 15,85 M 50,15 L 85,85" class="aether-blue-stroke" />

    <!-- 'A' crossbar / Eye element -->
    <path d="M 32.5,50 L 67.5,50" class="aether-blue-stroke" />
    
    <!-- Central 'Quantum State' element -->
    <circle cx="50" cy="50" r="4" class="aether-blue-fill" />
    <circle cx="50" cy="50" r="8" class="aether-blue-stroke" />

    <!-- V shape -->
    <path d="M 35,15 L 50,45 L 65,15" stroke="rgb(10, 48, 90)" stroke-width="1.5" fill="none" />
</svg>