<svg width="1920" height="1080" viewBox="0 0 1920 1080" xmlns="http://www.w3.org/2000/svg">
    <!-- Carousel Background 2: Focal Point -->
    <!-- Represents the Bindu, a focal point of energy, data, or consciousness. -->
    <rect width="100%" height="100%" fill="#FFFFFF"/>
    <g stroke="#0A305A" stroke-width="0.5" opacity="0.1">
        <defs>
            <path id="ray" d="M 960 540 h 1200" />
        </defs>
        <use href="#ray" />
        <use href="#ray" transform="rotate(10 960 540)"/>
        <use href="#ray" transform="rotate(20 960 540)"/>
        <use href="#ray" transform="rotate(30 960 540)"/>
        <use href="#ray" transform="rotate(40 960 540)"/>
        <use href="#ray" transform="rotate(50 960 540)"/>
        <use href="#ray" transform="rotate(60 960 540)"/>
        <use href="#ray" transform="rotate(70 960 540)"/>
        <use href="#ray" transform="rotate(80 960 540)"/>
        <use href="#ray" transform="rotate(90 960 540)"/>
        <use href="#ray" transform="rotate(100 960 540)"/>
        <use href="#ray" transform="rotate(110 960 540)"/>
        <use href="#ray" transform="rotate(120 960 540)"/>
        <use href="#ray" transform="rotate(130 960 540)"/>
        <use href="#ray" transform="rotate(140 960 540)"/>
        <use href="#ray" transform="rotate(150 960 540)"/>
        <use href="#ray" transform="rotate(160 960 540)"/>
        <use href="#ray" transform="rotate(170 960 540)"/>
        <use href="#ray" transform="rotate(180 960 540)"/>
        <use href="#ray" transform="rotate(190 960 540)"/>
        <use href="#ray" transform="rotate(200 960 540)"/>
        <use href="#ray" transform="rotate(210 960 540)"/>
        <use href="#ray" transform="rotate(220 960 540)"/>
        <use href="#ray" transform="rotate(230 960 540)"/>
        <use href="#ray" transform="rotate(240 960 540)"/>
        <use href="#ray" transform="rotate(250 960 540)"/>
        <use href="#ray" transform="rotate(260 960 540)"/>
        <use href="#ray" transform="rotate(270 960 540)"/>
        <use href="#ray" transform="rotate(280 960 540)"/>
        <use href="#ray" transform="rotate(290 960 540)"/>
        <use href="#ray" transform="rotate(300 960 540)"/>
        <use href="#ray" transform="rotate(310 960 540)"/>
        <use href="#ray" transform="rotate(320 960 540)"/>
        <use href="#ray" transform="rotate(330 960 540)"/>
        <use href="#ray" transform="rotate(340 960 540)"/>
        <use href="#ray" transform="rotate(350 960 540)"/>
    </g>
</svg>
