<svg width="1920" height="1080" viewBox="0 0 1920 1080" xmlns="http://www.w3.org/2000/svg">
    <!-- Carousel Background 3: Quantum Waves -->
    <!-- Represents quantum foam, data streams, or neural pathways in an abstract, geometric style. -->
    <rect width="100%" height="100%" fill="#FFFFFF"/>
    <g fill="none" stroke="#0A305A" stroke-width="0.7" opacity="0.1">
        <path d="M -100 540 C 380 240, 580 840, 960 540 S 1540 240, 2020 540" />
        <path d="M -100 560 C 380 260, 580 860, 960 560 S 1540 260, 2020 560" />
        <path d="M -100 580 C 380 280, 580 880, 960 580 S 1540 280, 2020 580" />
        <path d="M -100 500 C 480 800, 780 200, 960 500 S 1340 800, 2020 500" />
        <path d="M -100 520 C 480 820, 780 220, 960 520 S 1340 820, 2020 520" />
    </g>
</svg>
