<svg width="7680" height="4320" viewBox="0 0 7680 4320" xmlns="http://www.w3.org/2000/svg">
    <defs>
        <radialGradient id="coreGlow" cx="50%" cy="50%" r="50%">
            <stop offset="0%" stop-color="#FFFFFF"/>
            <stop offset="40%" stop-color="#20B2AA"/>
            <stop offset="100%" stop-color="#0A305A" stop-opacity="0"/>
        </radialGradient>
        <filter id="blur">
            <feGaussianBlur in="SourceGraphic" stdDeviation="20"/>
        </filter>
    </defs>

    <rect width="100%" height="100%" fill="#F8F8F8"/>

    <g transform="translate(3840, 2160)">
        <!-- Protective Field Layers (Shells) -->
        <g stroke="#0A305A" fill="none" stroke-width="2" opacity="0.3">
            <circle r="600"/>
            <circle r="900"/>
            <circle r="1200"/>
            <circle r="1500"/>
        </g>

        <!-- Interference Patterns (The Physics of Safety) -->
        <g stroke="#20B2AA" fill="none" stroke-width="4" opacity="0.5">
            <!-- Simulated petals/waves -->
            <path d="M0 -600 Q 300 -300 0 0 Q -300 -300 0 -600" />
            <path d="M0 600 Q 300 300 0 0 Q -300 300 0 600" />
            <path d="M-600 0 Q -300 -300 0 0 Q -300 300 -600 0" />
            <path d="M600 0 Q 300 -300 0 0 Q 300 300 600 0" />
            
            <!-- Rotated layers -->
            <g transform="rotate(45)">
                <path d="M0 -800 Q 400 -400 0 0 Q -400 -400 0 -800" opacity="0.5"/>
                <path d="M0 800 Q 400 400 0 0 Q -400 400 0 800" opacity="0.5"/>
            </g>
        </g>

        <!-- The Protected Core (Life/Consciousness) -->
        <circle r="200" fill="url(#coreGlow)" filter="url(#blur)"/>
        <circle r="50" fill="#FFFFFF"/>
    </g>
</svg>