<svg width="1920" height="1080" viewBox="0 0 1920 1080" fill="none" xmlns="http://www.w3.org/2000/svg" style="background-color:#020a16;">
<defs>
    <filter id="pathGlow" x="-50%" y="-50%" width="200%" height="200%">
        <feGaussianBlur stdDeviation="8" result="blur"/>
        <feMerge>
            <feMergeNode in="blur"/>
            <feMergeNode in="SourceGraphic"/>
        </feMerge>
    </filter>
    <radialGradient id="profileGradient" cx="20%" cy="50%" r="80%">
        <stop offset="0%" stop-color="#bcaaa4" stop-opacity="0.1"/>
        <stop offset="100%" stop-color="#bcaaa4" stop-opacity="0"/>
    </radialGradient>
    <filter id="fieldTurbulence">
        <feTurbulence type="fractalNoise" baseFrequency="0.005" numOctaves="3" result="turbulence"/>
        <feColorMatrix in="turbulence" type="matrix" values="1 0 0 0 0  0 1 0 0 0  0 0 1 0 0  0 0 0 -1.5 1.2" result="alphaTurb"/>
        <feComposite in="SourceGraphic" in2="alphaTurb" operator="in"/>
    </filter>
</defs>
<!-- Quantum Field -->
<rect width="1920" height="1080" fill="#1a237e" opacity="0.1" filter="url(#fieldTurbulence)"/>
<!-- Human Profile -->
<path d="M400,1080 C150,800 180,300 450,150 C550,200 600,400 550,540 C650,550 700,450 750,300 C800,200 850,200 900,250" fill="url(#profileGradient)"/>
<!-- Light Patterns -->
<g filter="url(#pathGlow)" stroke-linecap="round" stroke-linejoin="round">
    <path d="M520,480 C700,450 1000,300 1500,500" stroke="#FFD54F" stroke-width="2" fill="none" opacity="0.8"/>
    <path d="M550,510 C800,550 1200,700 1700,650" stroke="#FFF176" stroke-width="1.5" fill="none" opacity="0.7"/>
    <path d="M510,450 C750,380 1100,420 1600,250" stroke="#FFF59D" stroke-width="1" fill="none" opacity="0.6"/>
</g>
</svg>